<svg id="Layer_3" data-name="Layer 3" xmlns="http://www.w3.org/2000/svg" viewBox="0 0 556.37 163.09"><defs><style>.cls-1{fill:#003f88;}.cls-2{fill:#00a5e0;}.cls-3{fill:#36d9ff;}</style></defs><title>Lycan 3D with base text (SVG)</title><path class="cls-1" d="M189.47,298.77v6.82H145.6V237.91h8.45v60.86Z" transform="translate(-145.6 -216.09)"/><path class="cls-2" d="M622.16,282.94c0,12.06-7.63,25-29,25-17.36,0-28.38-9.77-28.74-25.5l-.06-2.36h13.29l.07,2.23c.23,6.82,4.46,14.12,15.64,14.12,10.45,0,15.54-4.47,15.54-13.64,0-7.64-4.21-11.85-11.85-11.85a18.12,18.12,0,0,0-11,3.4l-1.81,1.2-6.59-8.73,23.09-20.1H566.88v-11.4H619v10.11l-18.13,16.31C611.15,261.79,622.16,268.45,622.16,282.94Z" transform="translate(-145.6 -216.09)"/><path class="cls-2" d="M668.45,235.27H638.61v70.52h29.84c20.8,0,33.22-13.24,33.22-35.41C701.67,248.39,689.25,235.27,668.45,235.27Zm-16.94,11.26H667c15.21,0,21.42,6.91,21.42,23.85S682,294.52,667,294.52H651.51Z" transform="translate(-145.6 -216.09)"/><path class="cls-1" d="M295.08,271.7c0-20.36,10.69-35.63,34-35.63,20.86,0,30.33,10.28,32,27.08h-8.55c-1.43-13.23-9-20.06-23.62-20.06-16.89,0-24.94,9.68-24.94,28.61s7.84,28.6,24.74,28.6c15.37,0,23.1-7.94,24-21.68h8.65c-1.12,17.2-10.79,28.7-32.47,28.7C305.56,307.32,295.08,292.26,295.08,271.7Z" transform="translate(-145.6 -216.09)"/><path class="cls-1" d="M430.87,288.29H397.28l-6.62,17.3h-8.44l25.65-67.68h12.52L446,305.59h-8.55Zm-2.54-6.82L414.08,244l-14.26,37.46Z" transform="translate(-145.6 -216.09)"/><path class="cls-1" d="M524.76,237.91v67.68H510.61l-30.74-53.13q-2.6-4.89-4.28-8.85v62h-8.44V237.91h14.24l30.75,53.23c1.32,2.34,3,5.7,4.27,8.75v-62Z" transform="translate(-145.6 -216.09)"/><polygon class="cls-2" points="93.12 111.21 112.13 61.38 154.24 1.78 96.01 56.49 93.12 111.21"/><polygon class="cls-2" points="90.03 111.21 71.02 61.38 28.9 1.78 87.14 56.49 90.03 111.21"/><polygon class="cls-3" points="153.25 0 91.57 25.42 29.9 0 91.57 50.85 153.25 0 153.25 0"/><path class="cls-1" d="M169.39,359.15c0,6.73-3.38,12.28-11.39,12.28H147.86V347H158C166,347,169.39,352.5,169.39,359.15Zm-3.2,0c0-6.21-2.2-9.7-8.74-9.7h-6.54V369h6.54C164,369,166.19,365.36,166.19,359.15Z" transform="translate(-145.6 -216.09)"/><path class="cls-1" d="M173.17,347H177V350h-3.79Zm.41,6.06h2.93v18.38h-2.93Z" transform="translate(-145.6 -216.09)"/><path class="cls-1" d="M199,353.05v18.41c0,4.89-2.39,7.72-9.08,7.72-5.47,0-8.41-2.39-8.74-6.58h2.9c.22,2.43,1.76,4.27,5.84,4.27,4.34,0,6.14-1.51,6.14-5.44v-4c-1.25,2.39-3.53,3.56-6.84,3.56-5.76,0-8.48-3.6-8.48-9.26s2.72-9.22,8.48-9.22c3.35,0,5.59,1.32,6.84,3.67v-3.16Zm-2.94,8.71c0-5-2.24-6.9-6.14-6.9-4.19,0-6.17,1.94-6.17,6.9s2,6.95,6.17,6.95C193.86,368.71,196.1,366.76,196.1,361.76Z" transform="translate(-145.6 -216.09)"/><path class="cls-1" d="M203.67,347h3.78V350h-3.78Zm.4,6.06H207v18.38h-2.94Z" transform="translate(-145.6 -216.09)"/><path class="cls-1" d="M213.48,367.13V355.37H210v-1.65l3.75-.92,1.11-3.82h1.58v4.07h6.06v2.32h-6.06V369h5.84v2.39h-4.34C214.39,371.43,213.48,370.07,213.48,367.13Z" transform="translate(-145.6 -216.09)"/><path class="cls-1" d="M225.42,366.58c0-3,1.61-4.85,5.58-5.51l4.67-.78c2-.33,2.75-.84,2.75-2.24,0-1.87-.95-3.31-4.52-3.31s-5,1.7-5.14,4.08h-2.9c.11-3.89,2.86-6.39,7.93-6.39s7.32,2.31,7.32,5.62v8.82a41.45,41.45,0,0,0,.22,4.56h-2.69c-.14-1.58-.25-2.94-.25-4.3a6.75,6.75,0,0,1-6.91,4.78C228,371.91,225.42,370.07,225.42,366.58Zm13-3.86v-1.58a8.25,8.25,0,0,1-3.3,1.25l-3.05.62c-2.5.52-3.68,1.47-3.68,3.46s1.51,3.12,3.68,3.12C236.4,369.59,238.42,366.21,238.42,362.72Z" transform="translate(-145.6 -216.09)"/><path class="cls-1" d="M245.88,345.71h2.94v25.72h-2.94Z" transform="translate(-145.6 -216.09)"/><path class="cls-1" d="M288.94,371.43h-3.05V349.27l-8.23,22.16h-4.11l-8.27-22.16v22.16h-3V347h5.33l8.08,21.68L283.69,347h5.25Z" transform="translate(-145.6 -216.09)"/><path class="cls-1" d="M293.27,366.58c0-3,1.62-4.85,5.59-5.51l4.67-.78c1.94-.33,2.75-.84,2.75-2.24,0-1.87-.95-3.31-4.52-3.31s-5,1.7-5.14,4.08h-2.91c.11-3.89,2.87-6.39,7.94-6.39s7.31,2.31,7.31,5.62v8.82a41.73,41.73,0,0,0,.23,4.56H306.5c-.14-1.58-.25-2.94-.25-4.3a6.75,6.75,0,0,1-6.91,4.78C295.81,371.91,293.27,370.07,293.27,366.58Zm13-3.86v-1.58a8.3,8.3,0,0,1-3.31,1.25l-3,.62c-2.5.52-3.68,1.47-3.68,3.46s1.51,3.12,3.68,3.12C304.26,369.59,306.28,366.21,306.28,362.72Z" transform="translate(-145.6 -216.09)"/><path class="cls-1" d="M330.35,359.71v11.72h-2.94V360c0-3.94-1.73-5.11-4.41-5.11-4.08,0-6.25,3.16-6.25,9.48v7h-2.94V353.05h2.94v4.82c1.14-3.35,3.42-5.4,7.06-5.4C328.4,352.47,330.35,355,330.35,359.71Z" transform="translate(-145.6 -216.09)"/><path class="cls-1" d="M351.47,353.05v18.38h-2.94v-4.67c-1.1,3.27-3.27,5.26-6.83,5.26-4.63,0-6.73-2.43-6.73-7.24V353.05h2.94v11.4c0,4.08,1.8,5.14,4.63,5.14,3.83,0,6-3.42,6-9.52v-7Z" transform="translate(-145.6 -216.09)"/><path class="cls-1" d="M357.9,355.37h-3.09v-1.65l3.09-.78v-3.52c0-2.46,1.14-3.71,4.67-3.71h4.66V348h-6.61v5.1h5.58v2.32h-5.36v16.06H357.9Z" transform="translate(-145.6 -216.09)"/><path class="cls-1" d="M368.66,366.58c0-3,1.62-4.85,5.59-5.51l4.67-.78c1.94-.33,2.75-.84,2.75-2.24,0-1.87-.95-3.31-4.52-3.31s-5,1.7-5.14,4.08H369.1c.11-3.89,2.87-6.39,7.94-6.39s7.31,2.31,7.31,5.62v8.82a44.09,44.09,0,0,0,.22,4.56h-2.68c-.14-1.58-.25-2.94-.25-4.3a6.75,6.75,0,0,1-6.91,4.78C371.2,371.91,368.66,370.07,368.66,366.58Zm13-3.86v-1.58a8.3,8.3,0,0,1-3.31,1.25l-3.05.62c-2.49.52-3.67,1.47-3.67,3.46s1.51,3.12,3.67,3.12C379.65,369.59,381.67,366.21,381.67,362.72Z" transform="translate(-145.6 -216.09)"/><path class="cls-1" d="M397.29,352.47c5.51,0,8.26,3,8.56,7.31h-2.76a5.26,5.26,0,0,0-5.69-4.92c-3.9,0-6.32,2.09-6.32,7.38s2.35,7.39,6.21,7.39c3.71,0,5.62-2.1,6-5.22h2.79c-.22,4.23-3.2,7.61-8.78,7.61-6,0-9.19-4.16-9.19-9.78S391.33,352.47,397.29,352.47Z" transform="translate(-145.6 -216.09)"/><path class="cls-1" d="M411.14,367.13V355.37h-3.5v-1.65l3.75-.92,1.1-3.82h1.59v4.07h6.06v2.32h-6.06V369h5.84v2.39h-4.34C412.05,371.43,411.14,370.07,411.14,367.13Z" transform="translate(-145.6 -216.09)"/><path class="cls-1" d="M440.09,353.05v18.38h-2.94v-4.67c-1.1,3.27-3.27,5.26-6.84,5.26-4.63,0-6.72-2.43-6.72-7.24V353.05h2.94v11.4c0,4.08,1.8,5.14,4.63,5.14,3.82,0,6-3.42,6-9.52v-7Z" transform="translate(-145.6 -216.09)"/><path class="cls-1" d="M455.41,352.8v2.9h-.77c-5.44-.18-6.62,3.78-6.62,9v6.76h-2.94V353.05H448v4.86c1.1-3.05,3.23-5.11,6.73-5.11Z" transform="translate(-145.6 -216.09)"/><path class="cls-1" d="M458.12,347h3.79V350h-3.79Zm.41,6.06h2.94v18.38h-2.94Z" transform="translate(-145.6 -216.09)"/><path class="cls-1" d="M483,359.71v11.72H480.1V360c0-3.94-1.73-5.11-4.41-5.11-4.08,0-6.25,3.16-6.25,9.48v7H466.5V353.05h2.94v4.82c1.14-3.35,3.42-5.4,7.06-5.4C481.09,352.47,483,355,483,359.71Z" transform="translate(-145.6 -216.09)"/><path class="cls-1" d="M505.34,353.05v18.41c0,4.89-2.39,7.72-9.08,7.72-5.47,0-8.41-2.39-8.74-6.58h2.9c.22,2.43,1.76,4.27,5.84,4.27,4.34,0,6.14-1.51,6.14-5.44v-4c-1.25,2.39-3.53,3.56-6.84,3.56-5.77,0-8.48-3.6-8.48-9.26s2.71-9.22,8.48-9.22c3.35,0,5.59,1.32,6.84,3.67v-3.16Zm-2.94,8.71c0-5-2.24-6.9-6.14-6.9-4.19,0-6.17,1.94-6.17,6.9s2,6.95,6.17,6.95C500.16,368.71,502.4,366.76,502.4,361.76Z" transform="translate(-145.6 -216.09)"/><path class="cls-1" d="M536.9,369v2.46H518.71V347h18.08v2.46h-15v8.2h13.93v2.42H521.76V369Z" transform="translate(-145.6 -216.09)"/><path class="cls-1" d="M549,352.47c5.51,0,8.26,3,8.56,7.31h-2.76a5.26,5.26,0,0,0-5.69-4.92c-3.9,0-6.32,2.09-6.32,7.38s2.35,7.39,6.21,7.39c3.71,0,5.62-2.1,6-5.22h2.79c-.22,4.23-3.2,7.61-8.78,7.61-6,0-9.19-4.16-9.19-9.78S543,352.47,549,352.47Z" transform="translate(-145.6 -216.09)"/><path class="cls-1" d="M560.59,362.2c0-5.47,3-9.73,9.26-9.73s9.22,4.3,9.22,9.73-3,9.82-9.22,9.82S560.59,367.75,560.59,362.2Zm9.26,7.43c4.15,0,6.25-2.24,6.25-7.39s-2.1-7.38-6.25-7.38-6.28,2.2-6.28,7.38S565.7,369.63,569.85,369.63Z" transform="translate(-145.6 -216.09)"/><path class="cls-1" d="M584.77,365.29c.22,2.5,1.61,4.48,5.84,4.48,3.23,0,4.52-1.13,4.52-3.19,0-1.77-1-2.72-3.34-3.05l-4.27-.63c-3.19-.44-5-2.13-5-5,0-3.42,2.72-5.51,7.35-5.51,4.81,0,7.57,2.43,7.79,5.88h-2.91c-.18-1.91-1.58-3.64-5-3.64-3.12,0-4.41,1.25-4.41,3.05,0,1.29.66,2.39,3,2.72l3.89.55c4.23.63,5.77,2.43,5.77,5.44,0,3.75-2.6,5.59-7.49,5.59-6,0-8.42-2.87-8.49-6.73Z" transform="translate(-145.6 -216.09)"/><path class="cls-1" d="M618.28,353.05l-8.64,21.43c-1.14,2.94-1.87,4.3-5.18,4.3H601v-2.39h5.11l2-5h-1l-7.28-18.38h3.09l5.62,14.15.63,1.77.55-1.77,5.69-14.15Z" transform="translate(-145.6 -216.09)"/><path class="cls-1" d="M622.28,365.29c.22,2.5,1.62,4.48,5.84,4.48,3.24,0,4.52-1.13,4.52-3.19,0-1.77-1-2.72-3.34-3.05L625,362.9c-3.2-.44-5-2.13-5-5,0-3.42,2.72-5.51,7.35-5.51,4.81,0,7.57,2.43,7.79,5.88h-2.91c-.18-1.91-1.57-3.64-5-3.64-3.12,0-4.41,1.25-4.41,3.05,0,1.29.67,2.39,3,2.72l3.9.55c4.22.63,5.77,2.43,5.77,5.44,0,3.75-2.61,5.59-7.5,5.59-6,0-8.42-2.87-8.49-6.73Z" transform="translate(-145.6 -216.09)"/><path class="cls-1" d="M640.72,367.13V355.37h-3.49v-1.65l3.75-.92,1.1-3.82h1.58v4.07h6.07v2.32h-6.07V369h5.85v2.39h-4.34C641.64,371.43,640.72,370.07,640.72,367.13Z" transform="translate(-145.6 -216.09)"/><path class="cls-1" d="M666.78,365.77h2.68c-.37,2.79-2.5,6.25-8.6,6.25-6.32,0-9.11-4.27-9.11-9.82s3-9.73,9.11-9.73c5.51,0,8.63,3.78,8.63,9.15a7.67,7.67,0,0,1-.07,1.28H654.65c.22,5,2.64,6.87,6.32,6.87S666.22,368.08,666.78,365.77Zm-12.06-5.07h11.91c-.15-4.23-2.32-6-5.73-6S655.13,356.36,654.72,360.7Z" transform="translate(-145.6 -216.09)"/><path class="cls-1" d="M702,359.6v11.83H699v-11.5c0-3.72-1.5-5-4.18-5-4,0-5.81,3.16-5.81,9.48v7h-2.87v-11.5c0-3.72-1.54-5-4.22-5-3.94,0-5.77,3.16-5.77,9.48v7h-2.94V353.05h2.94v4.52c1.06-3.16,3.16-5.1,6.69-5.1s5.51,1.76,6,5.18c1.07-3.24,3.2-5.18,6.87-5.18C700,352.47,702,354.89,702,359.6Z" transform="translate(-145.6 -216.09)"/></svg>