<svg xmlns="http://www.w3.org/2000/svg" xmlns:xlink="http://www.w3.org/1999/xlink" width="186" height="303" viewBox="0 0 186 303">
  <defs>
    <filter id="Rectangle_1074" x="0" y="0" width="186" height="303" filterUnits="userSpaceOnUse">
      <feOffset dx="10" dy="20" input="SourceAlpha"/>
      <feGaussianBlur stdDeviation="15" result="blur"/>
      <feFlood flood-opacity="0.161"/>
      <feComposite operator="in" in2="blur"/>
      <feComposite in="SourceGraphic"/>
    </filter>
  </defs>
  <g id="Group_9326" data-name="Group 9326" transform="translate(-648 -1995)">
    <g id="Group_9196" data-name="Group 9196" transform="translate(683 2020)">
      <g transform="matrix(1, 0, 0, 1, -35, -25)" filter="url(#Rectangle_1074)">
        <rect id="Rectangle_1074-2" data-name="Rectangle 1074" width="96" height="213" rx="20" transform="translate(35 25)" fill="#fff"/>
      </g>
      <g id="user" transform="translate(55.668 46.646)">
        <g id="Group_9191" data-name="Group 9191" transform="translate(0 0)">
          <g id="Group_9190" data-name="Group 9190" transform="translate(0)">
            <path id="Path_233472" data-name="Path 233472" d="M95.855,93.607h71.7a1.992,1.992,0,0,0,1.992-1.992V88.037a15.722,15.722,0,0,0-8.124-13.8l-13.458-8.433a4.379,4.379,0,0,1-2.318-3.752V56.6a30.246,30.246,0,0,0,7.347-12.528,7.106,7.106,0,0,0,2.611-5.5V31.685a6.93,6.93,0,0,0-1.992-4.641l0-9.229C153.6,17.638,152.4,0,131.7,0s-21.9,17.638-21.908,17.925v9.12a6.929,6.929,0,0,0-1.992,4.641v6.881a7.106,7.106,0,0,0,2.611,5.5A30.248,30.248,0,0,0,117.763,56.6v5.455a4.448,4.448,0,0,1-2.422,3.814l-13.25,8.309a15.781,15.781,0,0,0-8.227,13.86v3.579A1.993,1.993,0,0,0,95.855,93.607Zm1.992-5.571A11.86,11.86,0,0,1,104.1,77.613l13.25-8.309a8.3,8.3,0,0,0,4.394-7.25V55.766A2,2,0,0,0,121.1,54.3c-.056-.05-5.435-5.089-6.989-11.854a1.985,1.985,0,0,0-.862-1.227,3.159,3.159,0,0,1-1.466-2.655V31.685a3.466,3.466,0,0,1,1.334-2.334,2,2,0,0,0,.657-1.478l0-9.831c.036-.576,1.073-14.059,17.929-14.059S149.6,17.467,149.629,17.925v9.948a2,2,0,0,0,.657,1.478,3.466,3.466,0,0,1,1.334,2.334v6.881a3.159,3.159,0,0,1-1.466,2.655,1.985,1.985,0,0,0-.862,1.227c-1.553,6.766-6.933,11.8-6.989,11.854a2,2,0,0,0-.641,1.464v6.288a8.237,8.237,0,0,0,4.29,7.188l13.458,8.433a11.8,11.8,0,0,1,6.152,10.363v1.587H97.847Z" transform="translate(-91.874)" fill="#fff" stroke="#fff" stroke-width="2"/>
            <path id="Path_233473" data-name="Path 233473" d="M107.55,424.813l-5.909-.9-2.605-4.742a1.989,1.989,0,0,0-3.489,0l-2.607,4.742-5.907.9a1.993,1.993,0,0,0-1.125,3.36l4.278,4.384-.836,5.174a1.992,1.992,0,0,0,3.071,1.976l4.872-3.246,4.867,3.246a1.991,1.991,0,0,0,3.071-1.974l-.834-5.176,4.28-4.384a1.993,1.993,0,0,0-1.126-3.36Zm-6.706,5.68a1.987,1.987,0,0,0-.54,1.707l.267,1.659-2.175-1.45a1.993,1.993,0,0,0-2.211,0l-2.175,1.45.267-1.657a1.991,1.991,0,0,0-.54-1.709l-2.273-2.328,3.047-.466a2,2,0,0,0,1.446-1.01l1.332-2.426,1.33,2.424a1.993,1.993,0,0,0,1.446,1.012l3.049.466Z" transform="translate(-85.341 -320.542)" fill="#fff" stroke="#fff" stroke-width="0.05"/>
            <path id="Path_233474" data-name="Path 233474" d="M227.008,425.063l-5.909-.9-2.605-4.742a2.068,2.068,0,0,0-3.489,0l-2.605,4.742-5.909.9a1.993,1.993,0,0,0-1.125,3.36l4.278,4.384-.836,5.174a1.992,1.992,0,0,0,3.071,1.976l4.871-3.246,4.867,3.246a1.991,1.991,0,0,0,3.071-1.974l-.834-5.176,4.28-4.384a1.993,1.993,0,0,0-1.126-3.36Zm-6.706,5.68a1.987,1.987,0,0,0-.54,1.707l.267,1.659-2.175-1.45a1.993,1.993,0,0,0-2.211,0l-2.175,1.45.267-1.657a1.991,1.991,0,0,0-.54-1.709l-2.273-2.328,3.049-.466a1.993,1.993,0,0,0,1.446-1.012l1.33-2.424,1.33,2.424a1.993,1.993,0,0,0,1.446,1.012l3.049.466Z" transform="translate(-176.918 -320.793)" fill="#fff" stroke="#fff" stroke-width="0.05"/>
            <path id="Path_233475" data-name="Path 233475" d="M348.061,426.4a1.989,1.989,0,0,0-1.587-1.336l-5.909-.9-2.605-4.742a2.068,2.068,0,0,0-3.489,0l-2.605,4.742-5.909.9a1.993,1.993,0,0,0-1.125,3.36l4.278,4.384-.837,5.174a1.992,1.992,0,0,0,3.071,1.976l4.871-3.246,4.867,3.246a1.991,1.991,0,0,0,3.071-1.974l-.834-5.176,4.28-4.384A1.993,1.993,0,0,0,348.061,426.4Zm-8.293,4.344a1.987,1.987,0,0,0-.54,1.707l.267,1.659-2.175-1.45a1.993,1.993,0,0,0-2.211,0l-2.175,1.45.267-1.657a1.991,1.991,0,0,0-.54-1.709l-2.273-2.328,3.049-.466a1.993,1.993,0,0,0,1.446-1.012l1.33-2.424,1.33,2.424a1.993,1.993,0,0,0,1.446,1.012l3.049.466Z" transform="translate(-268.501 -320.793)" fill="#fff" stroke="#fff" stroke-width="0.05"/>
          </g>
        </g>
      </g>
    </g>
  </g>
</svg>
