<svg xmlns="http://www.w3.org/2000/svg" xmlns:xlink="http://www.w3.org/1999/xlink" width="186" height="303" viewBox="0 0 186 303">
  <defs>
    <filter id="Rectangle_1069" x="0" y="0" width="186" height="303" filterUnits="userSpaceOnUse">
      <feOffset dx="10" dy="20" input="SourceAlpha"/>
      <feGaussianBlur stdDeviation="15" result="blur"/>
      <feFlood flood-opacity="0.161"/>
      <feComposite operator="in" in2="blur"/>
      <feComposite in="SourceGraphic"/>
    </filter>
  </defs>
  <g id="Group_9325" data-name="Group 9325" transform="translate(-299 -1995)">
    <g transform="matrix(1, 0, 0, 1, 299, 1995)" filter="url(#Rectangle_1069)">
      <rect id="Rectangle_1069-2" data-name="Rectangle 1069" width="96" height="213" rx="20" transform="translate(35 25)" fill="#fff"/>
    </g>
    <g id="cv" transform="translate(375 2066.646)">
      <path id="Path_233466" data-name="Path 233466" d="M144.175,31.025l-30-30A3.5,3.5,0,0,0,111.7,0H61.076A12.891,12.891,0,0,0,48.2,12.876v93.748A12.89,12.89,0,0,0,61.076,119.5h71.249A12.89,12.89,0,0,0,145.2,106.624V33.5a3.5,3.5,0,0,0-1.026-2.475ZM115.2,11.953,133.247,30H121.075a5.881,5.881,0,0,1-5.874-5.874ZM132.324,112.5H61.076a5.881,5.881,0,0,1-5.874-5.874V12.876A5.881,5.881,0,0,1,61.076,7H108.2V24.126A12.89,12.89,0,0,0,121.074,37H138.2v69.623A5.881,5.881,0,0,1,132.324,112.5Z" transform="translate(-48.2 0)" fill="#fff"/>
      <path id="Path_233467" data-name="Path 233467" d="M175.967,417.732h-60a3.5,3.5,0,0,0,0,7h60a3.5,3.5,0,0,0,0-7Z" transform="translate(-97.467 -320.234)" fill="#fff"/>
      <path id="Path_233468" data-name="Path 233468" d="M175.967,353.467h-60a3.5,3.5,0,0,0,0,7h60a3.5,3.5,0,0,0,0-7Z" transform="translate(-97.467 -270.969)" fill="#fff"/>
      <path id="Path_233469" data-name="Path 233469" d="M175.967,289.2h-60a3.5,3.5,0,0,0,0,7h60a3.5,3.5,0,0,0,0-7Z" transform="translate(-97.467 -221.701)" fill="#fff"/>
      <path id="Path_233470" data-name="Path 233470" d="M115.968,231.936h45a3.5,3.5,0,0,0,0-7h-45a3.5,3.5,0,1,0,0,7Z" transform="translate(-97.467 -172.435)" fill="#fff"/>
      <path id="Path_233471" data-name="Path 233471" d="M115.968,93.768h22.5a3.5,3.5,0,0,0,3.5-3.5v-22.5a3.5,3.5,0,0,0-3.5-3.5h-22.5a3.5,3.5,0,0,0-3.5,3.5v22.5A3.5,3.5,0,0,0,115.968,93.768Zm3.5-22.5h15.5v15.5h-15.5Z" transform="translate(-97.467 -49.267)" fill="#fff"/>
    </g>
  </g>
</svg>
