<svg xmlns="http://www.w3.org/2000/svg" xmlns:xlink="http://www.w3.org/1999/xlink" width="186" height="303" viewBox="0 0 186 303">
  <defs>
    <filter id="Rectangle_1075" x="0" y="0" width="186" height="303" filterUnits="userSpaceOnUse">
      <feOffset dx="10" dy="20" input="SourceAlpha"/>
      <feGaussianBlur stdDeviation="15" result="blur"/>
      <feFlood flood-opacity="0.161"/>
      <feComposite operator="in" in2="blur"/>
      <feComposite in="SourceGraphic"/>
    </filter>
  </defs>
  <g id="Group_9327" data-name="Group 9327" transform="translate(-1010 -1995)">
    <g id="Group_9198" data-name="Group 9198" transform="translate(1045 2020)">
      <g transform="matrix(1, 0, 0, 1, -35, -25)" filter="url(#Rectangle_1075)">
        <rect id="Rectangle_1075-2" data-name="Rectangle 1075" width="96" height="213" rx="20" transform="translate(35 25)" fill="#fff"/>
      </g>
      <g id="noun_touch_1793866" transform="translate(56.562 46.646)">
        <g id="Group_9193" data-name="Group 9193" transform="translate(0 0)">
          <path id="Path_233476" data-name="Path 233476" d="M95.882,66.3c0-5.283-4-9.56-8.944-9.56a8.047,8.047,0,0,0-5.06,1.761,9.04,9.04,0,0,0-8.355-6.038,8.047,8.047,0,0,0-5.06,1.761,9.04,9.04,0,0,0-8.355-6.038,8.9,8.9,0,0,0-4.472,1.258V27.56a10.319,10.319,0,0,0-2.589-6.793A8.514,8.514,0,0,0,46.692,18h0c-4.943,0-8.944,4.277-8.944,9.56V76.744l-6.237-6.667A8.508,8.508,0,0,0,20.1,68.945a9.6,9.6,0,0,0-3.883,6.667,10.239,10.239,0,0,0,2,7.547l18.358,23.648A28.071,28.071,0,0,0,58.931,118H70.346a24.757,24.757,0,0,0,18.123-8.051A28.3,28.3,0,0,0,96,90.58ZM85.291,106.556a20.36,20.36,0,0,1-14.945,6.667H58.931a23.727,23.727,0,0,1-18.829-9.56L21.627,80.014a5.438,5.438,0,0,1-1.059-3.774,5.223,5.223,0,0,1,2-3.4,4.943,4.943,0,0,1,2.589-.881,4.4,4.4,0,0,1,3.177,1.384l7.414,7.8a3.629,3.629,0,0,0,4.119.881,4.133,4.133,0,0,0,2.354-3.774V27.56a4.632,4.632,0,0,1,4.472-4.78h0a4.4,4.4,0,0,1,3.177,1.384,5.039,5.039,0,0,1,1.294,3.4V62.529a2.317,2.317,0,0,0,2.236,2.39,2.242,2.242,0,0,0,2.236-2.39v-4.78a4.482,4.482,0,1,1,8.944,0v9.057a2.317,2.317,0,0,0,2.236,2.39,2.242,2.242,0,0,0,2.236-2.39v-4.78a4.482,4.482,0,1,1,8.944,0v9.057a2.317,2.317,0,0,0,2.236,2.39,2.242,2.242,0,0,0,2.236-2.39V66.3a4.482,4.482,0,1,1,8.944,0V90.58A23.159,23.159,0,0,1,85.291,106.556Z" transform="translate(-16.125 1.497)" fill="#fff" stroke="#fff" stroke-width="1.5"/>
          <path id="Path_233477" data-name="Path 233477" d="M42.59,16.84a2.388,2.388,0,0,0,2.39-2.39V4.89A2.388,2.388,0,0,0,42.59,2.5,2.313,2.313,0,0,0,40.2,4.89v9.56A2.313,2.313,0,0,0,42.59,16.84Z" transform="translate(-11.984 -2.5)" fill="#fff" stroke="#fff" stroke-width="1.5"/>
          <path id="Path_233478" data-name="Path 233478" d="M32.754,19.524a2.435,2.435,0,0,0,1.635.755,2.214,2.214,0,0,0,1.635-.755,2.512,2.512,0,0,0,0-3.4L29.232,9.335a2.512,2.512,0,0,0-3.4,0,2.512,2.512,0,0,0,0,3.4Z" transform="translate(-13.79 -0.908)" fill="#fff" stroke="#fff" stroke-width="1.5"/>
          <path id="Path_233479" data-name="Path 233479" d="M52.2,20.279a2.028,2.028,0,0,0,1.635-.755l6.793-6.793a2.512,2.512,0,0,0,0-3.4,2.512,2.512,0,0,0-3.4,0l-6.793,6.793a2.512,2.512,0,0,0,0,3.4A2.484,2.484,0,0,0,52.2,20.279Z" transform="translate(-10.601 -0.908)" fill="#fff" stroke="#fff" stroke-width="1.5"/>
        </g>
      </g>
    </g>
  </g>
</svg>
