<svg xmlns="http://www.w3.org/2000/svg" xmlns:xlink="http://www.w3.org/1999/xlink" width="186" height="303" viewBox="0 0 186 303">
  <defs>
    <filter id="Rectangle_1076" x="0" y="0" width="186" height="303" filterUnits="userSpaceOnUse">
      <feOffset dx="10" dy="20" input="SourceAlpha"/>
      <feGaussianBlur stdDeviation="15" result="blur"/>
      <feFlood flood-opacity="0.161"/>
      <feComposite operator="in" in2="blur"/>
      <feComposite in="SourceGraphic"/>
    </filter>
  </defs>
  <g id="Group_9328" data-name="Group 9328" transform="translate(-1373 -1995)">
    <g id="Group_9199" data-name="Group 9199" transform="translate(1408 2020)">
      <g transform="matrix(1, 0, 0, 1, -35, -25)" filter="url(#Rectangle_1076)">
        <rect id="Rectangle_1076-2" data-name="Rectangle 1076" width="96" height="213" rx="20" transform="translate(35 25)" fill="#fff"/>
      </g>
      <g id="noun_Certificate_1496094" transform="translate(53.267 43.913)">
        <g id="Group_9195" data-name="Group 9195" transform="translate(0 0)">
          <path id="Path_233480" data-name="Path 233480" d="M97.036,5H27.158a8.3,8.3,0,0,0-8.292,8.294v69.65a2.812,2.812,0,0,0,.051.58c.015.081.046.154.068.232a2.619,2.619,0,0,0,.089.286c.037.089.087.169.133.254a2.529,2.529,0,0,0,.122.225,2.818,2.818,0,0,0,.311.38.5.5,0,0,0,.035.042L38.425,103.7a2.758,2.758,0,0,0,2.006.866H58.557l-.371,3.023a2.36,2.36,0,0,0,1.894,2.6l5.605,1.086.868,1.569v14.754a2.359,2.359,0,0,0,3.58,2.02l6.554-3.952,6.566,3.953a2.362,2.362,0,0,0,3.578-2.023V112.838l.859-1.555L93.3,110.2a2.361,2.361,0,0,0,1.894-2.6l-.371-3.023h2.219a8.31,8.31,0,0,0,8.294-8.306V13.294A8.3,8.3,0,0,0,97.036,5ZM37.66,95.081l-9.318-9.324h6.575A2.748,2.748,0,0,1,37.661,88.5v6.579ZM77.9,120.9a2.359,2.359,0,0,0-2.437,0l-4.192,2.527v-6.064a2.441,2.441,0,0,0,.239-.085l5.174-2.42,5.174,2.42a2.349,2.349,0,0,0,.247.083v6.068Zm7.806-14.038a2.364,2.364,0,0,0-1.618,1.175l-2.229,4.032-4.175-1.954a2.36,2.36,0,0,0-2,0l-4.175,1.954-2.229-4.032a2.362,2.362,0,0,0-1.618-1.176l-4.527-.876.3-2.47a2.721,2.721,0,0,0,.039-3.391,2.3,2.3,0,0,0-.4-.61l-3.144-3.371,3.144-3.373a2.365,2.365,0,0,0,.616-1.9L63.14,86.3l4.527-.878a2.364,2.364,0,0,0,1.618-1.175l2.229-4.032,4.175,1.954a2.364,2.364,0,0,0,2,0l4.175-1.954,2.229,4.032a2.364,2.364,0,0,0,1.618,1.175l4.525.876-.562,4.574a2.367,2.367,0,0,0,.616,1.9l3.144,3.373L90.288,99.51a2.322,2.322,0,0,0-.39.6,2.725,2.725,0,0,0,.033,3.414l.3,2.462Zm14.067-10.6A2.742,2.742,0,0,1,97.222,99l1.164-1.248a2.359,2.359,0,0,0,0-3.219l-3.893-4.177.7-5.668a2.359,2.359,0,0,0-1.894-2.6l-5.605-1.086-2.763-5a2.365,2.365,0,0,0-3.066-1l-5.174,2.42L71.513,75a2.362,2.362,0,0,0-3.066,1l-2.763,5L60.078,82.08a2.361,2.361,0,0,0-1.894,2.6l.7,5.668-3.895,4.177a2.362,2.362,0,0,0,0,3.219l1.182,1.268H43.211V88.5a8.309,8.309,0,0,0-8.3-8.3h-10.5V13.294a2.748,2.748,0,0,1,2.742-2.74H97.036a2.742,2.742,0,0,1,2.74,2.74Z" transform="translate(-18.866 -5)" fill="#fff"/>
          <path id="Path_233481" data-name="Path 233481" d="M29.9,33.031a2.222,2.222,0,0,0,0,4.443H72.051a2.222,2.222,0,0,0,0-4.443Z" transform="translate(-15.442 5.89)" fill="#fff"/>
          <path id="Path_233482" data-name="Path 233482" d="M73.229,33.031H66.5a2.222,2.222,0,0,0,0,4.443h6.726a2.222,2.222,0,0,0,0-4.443Z" transform="translate(-1.222 5.89)" fill="#fff"/>
          <path id="Path_233483" data-name="Path 233483" d="M87.449,42.375H29.9a2.222,2.222,0,1,0,0,4.443H87.449a2.222,2.222,0,1,0,0-4.443Z" transform="translate(-15.442 9.52)" fill="#fff"/>
          <path id="Path_233484" data-name="Path 233484" d="M39.553,18.786H83.092a2.222,2.222,0,0,0,0-4.443H39.553a2.222,2.222,0,0,0,0,4.443Z" transform="translate(-11.692 -1.37)" fill="#fff"/>
          <path id="Path_233485" data-name="Path 233485" d="M29.463,18.786H34.8a2.222,2.222,0,0,0,0-4.443H29.463a2.222,2.222,0,0,0,0,4.443Z" transform="translate(-15.612 -1.37)" fill="#fff"/>
          <path id="Path_233486" data-name="Path 233486" d="M29.463,28.13H87.012a2.222,2.222,0,0,0,0-4.443H29.463a2.222,2.222,0,0,0,0,4.443Z" transform="translate(-15.612 2.26)" fill="#fff"/>
          <path id="Path_233487" data-name="Path 233487" d="M33.134,51.718H29.876a2.222,2.222,0,1,0,0,4.443h3.259a2.222,2.222,0,1,0,0-4.443Z" transform="translate(-15.452 13.15)" fill="#fff"/>
          <path id="Path_233488" data-name="Path 233488" d="M54.93,51.718H38.56a2.222,2.222,0,1,0,0,4.443H54.93a2.222,2.222,0,0,0,0-4.443Z" transform="translate(-12.078 13.15)" fill="#fff"/>
          <path id="Path_233489" data-name="Path 233489" d="M63.23,63.633a9.647,9.647,0,0,0-2.77.4,2.083,2.083,0,0,0,1.19,3.992,5.56,5.56,0,1,1-3.978,5.33,5.494,5.494,0,0,1,.554-2.419,2.083,2.083,0,1,0-3.746-1.82,9.623,9.623,0,0,0-.973,4.238,9.726,9.726,0,1,0,9.724-9.724Z" transform="translate(-5.408 17.779)" fill="#fff"/>
        </g>
      </g>
    </g>
  </g>
</svg>
